<svg width="128" height="128" viewBox="0 0 128 128" fill="none" xmlns="http://www.w3.org/2000/svg">
  <rect width="128" height="128" rx="24" fill="url(#gradient)"/>
  <path d="M64 24C68.4183 24 72 27.5817 72 32V96C72 100.418 68.4183 104 64 104C59.5817 104 56 100.418 56 96V32C56 27.5817 59.5817 24 64 24Z" fill="white"/>
  <path d="M40 48C44.4183 48 48 51.5817 48 56V96C48 100.418 44.4183 104 40 104C35.5817 104 32 100.418 32 96V56C32 51.5817 35.5817 48 40 48Z" fill="white" opacity="0.7"/>
  <path d="M88 48C92.4183 48 96 51.5817 96 56V96C96 100.418 92.4183 104 88 104C83.5817 104 80 100.418 80 96V56C80 51.5817 83.5817 48 88 48Z" fill="white" opacity="0.7"/>
  <defs>
    <linearGradient id="gradient" x1="0" y1="0" x2="128" y2="128" gradientUnits="userSpaceOnUse">
      <stop stop-color="#667eea"/>
      <stop offset="1" stop-color="#764ba2"/>
    </linearGradient>
  </defs>
</svg>
